<svg width="40" height="50" viewBox="0 0 24 35" fill="none" xmlns="http://www.w3.org/2000/svg">
<path d="M11.5385 23.0769C17.911 23.0769 23.0769 17.911 23.0769 11.5385C23.0769 5.16595 17.911 0 11.5385 0C5.16595 0 0 5.16595 0 11.5385C0 17.911 5.16595 23.0769 11.5385 23.0769Z" fill="#00D1FF"/>
<path d="M11.5385 28.3077C17.911 28.3077 23.0769 23.1418 23.0769 16.7692C23.0769 10.3967 17.911 5.23077 11.5385 5.23077C5.16595 5.23077 0 10.3967 0 16.7692C0 23.1418 5.16595 28.3077 11.5385 28.3077Z" fill="#0066FF"/>
<path d="M11.5385 34.6154C17.911 34.6154 23.0769 29.4494 23.0769 23.0769C23.0769 16.7044 17.911 11.5385 11.5385 11.5385C5.16595 11.5385 0 16.7044 0 23.0769C0 29.4494 5.16595 34.6154 11.5385 34.6154Z" fill="#8000FF"/>
</svg>
