<svg width="343" height="275" viewBox="0 0 343 275" fill="none" xmlns="http://www.w3.org/2000/svg">
<path d="M40.5772 275C31.2133 275 23.2539 273.138 16.6991 269.416C10.2486 265.693 4.68199 260.806 0 254.756L13.8899 239.748C17.6355 244.634 21.7975 248.357 26.3752 250.917C31.0572 253.477 36.2074 254.756 41.8258 254.756C48.1727 254.756 52.9589 253.244 56.1839 250.219C59.4094 247.078 61.0219 242.889 61.0219 237.654C61.0219 233.582 59.9819 230.266 57.9006 227.706C55.8199 225.147 51.9183 223.286 46.1956 222.122L35.8952 220.377C14.1502 216.537 3.27739 204.728 3.27739 184.95C3.27739 179.482 4.16198 174.537 5.93052 170.116C7.80331 165.696 10.4564 161.914 13.8899 158.773C17.3234 155.632 21.4335 153.247 26.2191 151.618C31.1096 149.873 36.6238 149 42.7622 149C50.9819 149 58.1609 150.512 64.2993 153.537C70.4383 156.562 75.6921 161.042 80.062 166.975L66.016 181.809C63.3111 178.086 60.0337 175.061 56.1839 172.734C52.3346 170.407 47.4966 169.244 41.6697 169.244C35.7392 169.244 31.2657 170.523 28.248 173.083C25.3352 175.526 23.8781 179.017 23.8781 183.554C23.8781 188.208 25.0749 191.64 27.4677 193.85C29.8611 196.061 33.7103 197.69 39.0166 198.737L49.1609 200.831C60.1898 203.042 68.3052 206.997 73.5072 212.698C78.8135 218.283 81.4666 226.136 81.4666 236.258C81.4666 242.075 80.5302 247.369 78.6574 252.139C76.8889 256.792 74.2357 260.864 70.698 264.355C67.2646 267.728 62.999 270.346 57.9006 272.208C52.9065 274.069 47.132 275 40.5772 275ZM97.5926 272.906V254.407H111.951V169.593H97.5926V151.094H147.066V169.593H132.551V254.407H147.066V272.906H97.5926ZM210.405 275C203.226 275 196.724 273.72 190.897 271.161C185.175 268.485 180.233 264.529 176.071 259.294C172.013 254.058 168.892 247.601 166.707 239.922C164.522 232.127 163.43 223.111 163.43 212.873C163.43 202.634 164.522 193.559 166.707 185.648C168.892 177.62 172.013 170.931 176.071 165.579C180.233 160.111 185.175 155.981 190.897 153.188C196.724 150.396 203.226 149 210.405 149C220.186 149 228.301 151.327 234.752 155.981C241.203 160.634 246.353 167.673 250.202 177.097L232.567 187.568C231.006 182.1 228.457 177.737 224.92 174.479C221.383 171.105 216.544 169.418 210.405 169.418C202.706 169.418 196.568 172.327 191.99 178.144C187.516 183.961 185.279 192.105 185.279 202.576V221.773C185.279 232.36 187.516 240.504 191.99 246.205C196.568 251.789 202.706 254.582 210.405 254.582C216.544 254.582 221.539 252.72 225.388 248.997C229.342 245.274 232.203 240.678 233.971 235.211L250.671 246.205C246.717 255.28 241.463 262.377 234.908 267.496C228.353 272.499 220.186 275 210.405 275ZM302.111 275C292.747 275 284.787 273.138 278.232 269.416C271.781 265.693 266.215 260.806 261.533 254.756L275.423 239.748C279.169 244.634 283.33 248.357 287.909 250.917C292.591 253.477 297.741 254.756 303.359 254.756C309.705 254.756 314.492 253.244 317.717 250.219C320.942 247.078 322.555 242.889 322.555 237.654C322.555 233.582 321.515 230.266 319.434 227.706C317.353 225.147 313.451 223.286 307.729 222.122L297.429 220.377C275.683 216.537 264.811 204.728 264.811 184.95C264.811 179.482 265.695 174.537 267.464 170.116C269.337 165.696 271.99 161.914 275.423 158.773C278.857 155.632 282.966 153.247 287.753 151.618C292.642 149.873 298.157 149 304.296 149C312.515 149 319.694 150.512 325.833 153.537C331.971 156.562 337.226 161.042 341.595 166.975L327.549 181.809C324.844 178.086 321.566 175.061 317.717 172.734C313.867 170.407 309.029 169.244 303.203 169.244C297.273 169.244 292.798 170.523 289.781 173.083C286.868 175.526 285.412 179.017 285.412 183.554C285.412 188.208 286.608 191.64 289.001 193.85C291.394 196.061 295.244 197.69 300.55 198.737L310.694 200.831C321.723 203.042 329.838 206.997 335.041 212.698C340.347 218.283 343 226.136 343 236.258C343 242.075 342.064 247.369 340.191 252.139C338.422 256.792 335.769 260.864 332.231 264.355C328.798 267.728 324.532 270.346 319.434 272.208C314.44 274.069 308.665 275 302.111 275Z" fill="white"/>
<path d="M193.706 49.67C194.502 23.807 174.494 2.20492 149.016 1.42045C123.538 0.635991 102.238 20.9662 101.442 46.8293C100.646 72.6923 120.654 94.2944 146.132 95.0788C171.61 95.8633 192.91 75.5331 193.706 49.67Z" fill="#00D1FF"/>
<path d="M214.619 50.3138C215.415 24.4508 195.407 2.84871 169.929 2.06425C144.451 1.27979 123.151 21.61 122.355 47.4731C121.559 73.3361 141.567 94.9382 167.045 95.7226C192.523 96.5071 213.823 76.1769 214.619 50.3138Z" fill="#0066FF"/>
<path d="M239.838 51.0905C240.634 25.2274 220.626 3.62533 195.148 2.84086C169.67 2.0564 148.37 22.3866 147.574 48.2497C146.777 74.1127 166.786 95.7148 192.264 96.4993C217.742 97.2837 239.041 76.9535 239.838 51.0905Z" fill="#8000FF"/>
</svg>
