<svg width="122" height="51" viewBox="0 0 122 51" fill="none" xmlns="http://www.w3.org/2000/svg">
<path d="M0 17.5798L15.412 34.5366V0.623047L0 17.5798Z" fill="url(#paint0_linear_230_574)"/>
<path d="M30.7997 33.4201L15.3877 50.3769V16.4634L30.7997 33.4201Z" fill="url(#paint1_linear_230_574)"/>
<path d="M46.3933 39.25C44.057 39.25 42.0764 38.8563 40.4515 38.0692C38.8265 37.2565 37.4425 36.2158 36.2998 34.946L40.1087 31.099C41.9117 33.1306 44.1332 34.1461 46.7742 34.1461C48.1963 34.1461 49.2499 33.8543 49.9355 33.2701C50.6211 32.6859 50.9639 31.9117 50.9639 30.9467C50.9639 30.2101 50.7606 29.6007 50.3545 29.1184C49.9484 28.6104 49.1228 28.2676 47.8787 28.09L45.2506 27.7472C42.4321 27.3916 40.3624 26.5412 39.0422 25.1953C37.7472 23.8495 37.0997 22.0593 37.0997 19.8248C37.0997 18.6313 37.3282 17.5395 37.7853 16.5492C38.2423 15.5589 38.8898 14.7082 39.7278 13.9972C40.591 13.2863 41.6322 12.7403 42.851 12.3594C44.0951 11.9532 45.5044 11.75 47.0789 11.75C49.0847 11.75 50.8497 12.0674 52.3732 12.7022C53.8968 13.337 55.2046 14.2639 56.2963 15.4827L52.4494 19.3677C51.8147 18.6313 51.0401 18.0346 50.126 17.5776C49.2371 17.0951 48.1073 16.8539 46.7361 16.8539C45.4411 16.8539 44.476 17.0824 43.8414 17.5395C43.2067 17.9965 42.8891 18.6313 42.8891 19.4439C42.8891 20.358 43.1305 21.0183 43.6128 21.4245C44.1208 21.8308 44.9331 22.1228 46.0505 22.3006L48.6786 22.7195C51.421 23.1512 53.4525 24.0018 54.7728 25.2715C56.093 26.5155 56.7534 28.2933 56.7534 30.6039C56.7534 31.8737 56.5249 33.0416 56.0678 34.108C55.6107 35.1745 54.938 36.0886 54.0491 36.8504C53.1859 37.6122 52.1066 38.2087 50.8116 38.6406C49.5166 39.0467 48.044 39.25 46.3933 39.25ZM60.5251 38.7929V34.1842H63.9531V16.8158H60.5251V12.2071H73.1706V16.8158H69.7426V34.1842H73.1706V38.7929H60.5251ZM88.735 39.25C86.9325 39.25 85.307 38.9705 83.8597 38.412C82.4123 37.8279 81.1811 36.9775 80.1651 35.8601C79.1495 34.7174 78.3625 33.3082 77.8036 31.6323C77.2451 29.9311 76.9656 27.9505 76.9656 25.6904C76.9656 23.4559 77.2451 21.4753 77.8036 19.7486C78.3625 17.9965 79.1495 16.5365 80.1651 15.3684C81.1811 14.175 82.4123 13.2735 83.8597 12.6641C85.307 12.0547 86.9325 11.75 88.735 11.75C91.1984 11.75 93.2295 12.2579 94.8292 13.2735C96.4289 14.2639 97.7115 15.8382 98.6761 17.9965L93.6865 20.5866C93.3314 19.4693 92.7724 18.5806 92.0106 17.9204C91.2746 17.2348 90.1824 16.892 88.735 16.892C87.0339 16.892 85.6627 17.4506 84.6214 18.5679C83.6059 19.6597 83.0979 21.2594 83.0979 23.367V27.633C83.0979 29.7407 83.6059 31.3528 84.6214 32.4702C85.6627 33.5619 87.0339 34.108 88.735 34.108C90.1571 34.108 91.2869 33.7271 92.1249 32.9654C92.9885 32.1784 93.6232 31.2385 94.0293 30.1468L98.7523 32.8892C97.762 34.9207 96.4546 36.4948 94.8292 37.6122C93.2295 38.7039 91.1984 39.25 88.735 39.25ZM111.412 39.25C109.076 39.25 107.095 38.8563 105.47 38.0692C103.845 37.2565 102.461 36.2158 101.319 34.946L105.127 31.099C106.93 33.1306 109.152 34.1461 111.793 34.1461C113.215 34.1461 114.269 33.8543 114.954 33.2701C115.64 32.6859 115.983 31.9117 115.983 30.9467C115.983 30.2101 115.779 29.6007 115.373 29.1184C114.967 28.6104 114.142 28.2676 112.897 28.09L110.269 27.7472C107.451 27.3916 105.381 26.5412 104.061 25.1953C102.766 23.8495 102.118 22.0593 102.118 19.8248C102.118 18.6313 102.347 17.5395 102.804 16.5492C103.261 15.5589 103.909 14.7082 104.747 13.9972C105.61 13.2863 106.651 12.7403 107.87 12.3594C109.114 11.9532 110.523 11.75 112.098 11.75C114.103 11.75 115.868 12.0674 117.392 12.7022C118.915 13.337 120.223 14.2639 121.315 15.4827L117.468 19.3677C116.833 18.6313 116.059 18.0346 115.145 17.5776C114.256 17.0951 113.126 16.8539 111.755 16.8539C110.46 16.8539 109.495 17.0824 108.86 17.5395C108.225 17.9965 107.908 18.6313 107.908 19.4439C107.908 20.358 108.149 21.0183 108.632 21.4245C109.139 21.8308 109.952 22.1228 111.069 22.3006L113.697 22.7195C116.44 23.1512 118.471 24.0018 119.792 25.2715C121.112 26.5155 121.772 28.2933 121.772 30.6039C121.772 31.8737 121.544 33.0416 121.087 34.108C120.629 35.1745 119.956 36.0886 119.068 36.8504C118.204 37.6122 117.125 38.2087 115.83 38.6406C114.535 39.0467 113.062 39.25 111.412 39.25Z" fill="black"/>
<defs>
<linearGradient id="paint0_linear_230_574" x1="10.2747" y1="5.91133" x2="10.2747" y2="31.574" gradientUnits="userSpaceOnUse">
<stop stop-color="#FF4A4A"/>
<stop offset="1" stop-color="#FFC6C6"/>
</linearGradient>
<linearGradient id="paint1_linear_230_574" x1="20.5251" y1="45.4863" x2="18.6209" y2="15.6773" gradientUnits="userSpaceOnUse">
<stop stop-color="#FF4D4D"/>
<stop offset="1" stop-color="#FFC6C6"/>
</linearGradient>
</defs>
</svg>
