<svg width="67" height="67" viewBox="0 0 67 67" fill="none" xmlns="http://www.w3.org/2000/svg">
<circle cx="33.5" cy="33.5" r="33.5" fill="#FFF6EB"/>
<g clip-path="url(#clip0_357_335)">
<path d="M39.4166 47H28.5887C27.9622 46.9997 27.3432 46.864 26.774 46.6022C26.2048 46.3404 25.699 45.9588 25.291 45.4833C24.8888 45.0183 24.5917 44.4718 24.4203 43.8813C24.2488 43.2909 24.207 42.6703 24.2976 42.0622C24.8792 38.8939 26.5693 36.0361 29.0653 34C26.5692 31.9632 24.8795 29.1045 24.2987 25.9357C24.2082 25.3279 24.2501 24.7078 24.4213 24.1178C24.5926 23.5277 24.8892 22.9816 25.291 22.5167C25.699 22.0412 26.2048 21.6596 26.774 21.3978C27.3432 21.136 27.9622 21.0003 28.5887 21H39.4166C40.043 21.0006 40.662 21.1364 41.2311 21.3981C41.8002 21.6599 42.3061 22.0414 42.7142 22.5167C43.116 22.9814 43.4129 23.5272 43.5845 24.1171C43.7561 24.7069 43.7985 25.3269 43.7087 25.9346C43.1219 29.1044 41.4284 31.9627 38.9302 34C41.427 36.039 43.1186 38.8985 43.7033 42.0687C43.7932 42.6765 43.7508 43.2967 43.5792 43.8867C43.4076 44.4767 43.1107 45.0228 42.7088 45.4877C42.3009 45.9614 41.7957 46.3418 41.2276 46.6027C40.6594 46.8637 40.0418 46.9992 39.4166 47ZM39.4166 23.1667H28.5887C28.2744 23.1665 27.9638 23.2341 27.6781 23.365C27.3925 23.4959 27.1384 23.6869 26.9333 23.925C26.7331 24.153 26.5851 24.422 26.4998 24.7132C26.4144 25.0043 26.3938 25.3107 26.4393 25.6107C26.8467 28.319 28.5237 30.854 31.4227 33.1474C31.5507 33.2488 31.6542 33.3779 31.7254 33.525C31.7965 33.6721 31.8335 33.8334 31.8335 33.9967C31.8335 34.1601 31.7965 34.3214 31.7254 34.4685C31.6542 34.6156 31.5507 34.7447 31.4227 34.8461C28.5237 37.1417 26.8499 39.6788 26.4393 42.3861C26.3933 42.6866 26.4137 42.9935 26.499 43.2853C26.5844 43.5771 26.7326 43.8466 26.9333 44.075C27.1384 44.3131 27.3925 44.5041 27.6781 44.635C27.9638 44.7659 28.2744 44.8335 28.5887 44.8333H39.4166C39.7308 44.8336 40.0414 44.766 40.3271 44.6351C40.6128 44.5042 40.8669 44.3131 41.0719 44.075C41.2721 43.8474 41.4201 43.5788 41.5054 43.288C41.5908 42.9971 41.6114 42.6912 41.5659 42.3915C41.1618 39.6972 39.4859 37.1601 36.5826 34.8493C36.4553 34.7479 36.3525 34.619 36.2818 34.4723C36.2111 34.3257 36.1745 34.165 36.1745 34.0022C36.1745 33.8394 36.2111 33.6787 36.2818 33.532C36.3525 33.3853 36.4553 33.2565 36.5826 33.155C39.487 30.8442 41.1629 28.3071 41.5659 25.6117C41.6112 25.3112 41.59 25.0043 41.5037 24.7129C41.4174 24.4214 41.2682 24.1524 41.0665 23.925C40.8621 23.6875 40.6089 23.4969 40.3242 23.366C40.0395 23.2352 39.7299 23.1672 39.4166 23.1667ZM37.9877 42.6667H30.0111C29.8338 42.6666 29.6593 42.623 29.5028 42.5398C29.3463 42.4565 29.2126 42.3362 29.1135 42.1892C29.0143 42.0423 28.9528 41.8733 28.9342 41.697C28.9156 41.5207 28.9405 41.3426 29.0068 41.1782C29.8552 39.3463 31.1477 37.7555 32.7671 36.5502L33.3282 36.1038C33.5199 35.9513 33.7577 35.8683 34.0026 35.8683C34.2476 35.8683 34.4853 35.9513 34.677 36.1038L35.2284 36.5437C36.8455 37.7538 38.138 39.3452 38.9908 41.176C39.0575 41.3404 39.0828 41.5187 39.0645 41.6952C39.0462 41.8717 38.9848 42.041 38.8858 42.1882C38.7867 42.3354 38.653 42.456 38.4964 42.5394C38.3398 42.6229 38.1651 42.6665 37.9877 42.6667ZM31.8701 40.5H36.1254C35.5073 39.6943 34.7936 38.9668 33.9999 38.3333C33.2027 38.9643 32.4873 39.6921 31.8701 40.5Z" fill="#FA8802"/>
</g>
<defs>
<clipPath id="clip0_357_335">
<rect width="26" height="26" fill="white" transform="translate(21 21)"/>
</clipPath>
</defs>
</svg>
