<svg width="22" height="21" viewBox="0 0 22 21" fill="none" xmlns="http://www.w3.org/2000/svg">
<mask id="path-1-inside-1_230_602" fill="white">
<path d="M21.9863 10.5C21.9863 12.5767 21.3705 14.6068 20.2168 16.3335C19.063 18.0602 17.4231 19.406 15.5045 20.2007C13.5859 20.9955 11.4747 21.2034 9.43788 20.7982C7.40108 20.3931 5.53016 19.3931 4.06171 17.9246C2.59326 16.4562 1.59323 14.5852 1.18808 12.5484C0.782938 10.5116 0.990873 8.40045 1.78559 6.48182C2.58031 4.5632 3.92612 2.92332 5.65284 1.76957C7.37956 0.615814 9.40962 -2.47644e-08 11.4863 0L11.4863 10.5H21.9863Z"/>
</mask>
<path d="M21.9863 10.5C21.9863 12.5767 21.3705 14.6068 20.2168 16.3335C19.063 18.0602 17.4231 19.406 15.5045 20.2007C13.5859 20.9955 11.4747 21.2034 9.43788 20.7982C7.40108 20.3931 5.53016 19.3931 4.06171 17.9246C2.59326 16.4562 1.59323 14.5852 1.18808 12.5484C0.782938 10.5116 0.990873 8.40045 1.78559 6.48182C2.58031 4.5632 3.92612 2.92332 5.65284 1.76957C7.37956 0.615814 9.40962 -2.47644e-08 11.4863 0L11.4863 10.5H21.9863Z" fill="white" stroke="black" stroke-width="2" mask="url(#path-1-inside-1_230_602)"/>
</svg>
