<svg width="67" height="67" viewBox="0 0 67 67" fill="none" xmlns="http://www.w3.org/2000/svg">
<circle cx="33.5" cy="33.5" r="33.5" fill="#EAFFF5"/>
<path d="M42 29.3333V28.246C41.9985 26.6783 41.3878 25.1753 40.3019 24.0668C39.216 22.9583 37.7437 22.3349 36.208 22.3333H35.1429V20H32.8571V22.3333H31.792C30.4175 22.3348 29.0883 22.8353 28.0421 23.7452C26.9958 24.6551 26.3006 25.9153 26.0807 27.3003C25.8609 28.6854 26.1308 30.1051 26.842 31.3058C27.5533 32.5064 28.6597 33.4097 29.9634 33.8542L32.8571 34.84V43.3333H31.792C30.8624 43.3324 29.971 42.955 29.3137 42.2839C28.6563 41.6129 28.2866 40.703 28.2857 39.754V38.6667H26V39.754C26.0015 41.3217 26.6122 42.8247 27.6981 43.9332C28.784 45.0417 30.2563 45.6651 31.792 45.6667H32.8571V48H35.1429V45.6667H36.208C37.5825 45.6652 38.9117 45.1647 39.9579 44.2548C41.0042 43.3449 41.6994 42.0847 41.9193 40.6997C42.1391 39.3146 41.8692 37.8949 41.158 36.6942C40.4467 35.4936 39.3403 34.5903 38.0366 34.1458L35.1429 33.16V24.6667H36.208C37.1376 24.6676 38.029 25.045 38.6863 25.7161C39.3437 26.3871 39.7134 27.297 39.7143 28.246V29.3333H42ZM37.3143 36.3578C38.1043 36.6262 38.775 37.1729 39.2062 37.9C39.6375 38.627 39.8013 39.487 39.6682 40.326C39.5352 41.1651 39.1139 41.9284 38.48 42.4794C37.846 43.0304 37.0406 43.3331 36.208 43.3333H35.1429V35.6182L37.3143 36.3578ZM32.8571 32.3818L30.6857 31.6422C29.8957 31.3737 29.225 30.8271 28.7938 30.1C28.3625 29.373 28.1987 28.513 28.3318 27.674C28.4648 26.8349 28.8861 26.0716 29.52 25.5206C30.154 24.9696 30.9594 24.6669 31.792 24.6667H32.8571V32.3818Z" fill="#00C566"/>
</svg>
